<?xml version="1.0" encoding="utf-8"?>
<!-- Generator: Adobe Illustrator 24.2.3, SVG Export Plug-In . SVG Version: 6.00 Build 0)  -->
<svg version="1.1" id="Layer_1" xmlns="http://www.w3.org/2000/svg" xmlns:xlink="http://www.w3.org/1999/xlink" x="0px" y="0px"
	 viewBox="0 0 25 380" style="enable-background:new 0 0 25 380;" xml:space="preserve">
<style type="text/css">
	.st0{fill-rule:evenodd;clip-rule:evenodd;fill:#009B63;}
	.st1{fill:#FFFFFF;}
</style>
<rect class="st0" width="25" height="380"/>
<g>
	<path class="st1" d="M18.8,258.1v1.7H6.4v-1.7H18.8z"/>
	<path class="st1" d="M10.5,253.7c0.2,0,0.4,0,0.7-0.1s0.5,0,0.7,0v-0.1c-0.2-0.1-0.4-0.2-0.6-0.4c-0.2-0.2-0.4-0.4-0.5-0.6
		c-0.1-0.2-0.3-0.5-0.3-0.8c-0.1-0.3-0.1-0.6-0.1-0.9c0-0.5,0.1-1,0.3-1.4c0.2-0.4,0.4-0.7,0.7-1c0.3-0.3,0.7-0.4,1.1-0.6
		c0.4-0.1,0.8-0.2,1.3-0.2h5.1v1.6h-4.6c-0.3,0-0.7,0-1,0.1c-0.3,0.1-0.6,0.1-0.8,0.3c-0.2,0.1-0.4,0.3-0.6,0.6
		c-0.1,0.2-0.2,0.6-0.2,0.9c0,0.7,0.2,1.2,0.7,1.6s1.2,0.6,2,0.6h4.4v1.6h-6.5c-0.2,0-0.5,0-0.9,0s-0.7,0-0.9,0.1V253.7z"/>
	<path class="st1" d="M17.5,238.4c0.5,0.3,0.9,0.7,1.1,1.3c0.3,0.5,0.4,1.1,0.4,1.7c0,0.6-0.1,1.2-0.3,1.7c-0.2,0.5-0.5,1-0.9,1.3
		c-0.4,0.4-0.9,0.6-1.4,0.8c-0.5,0.2-1.1,0.3-1.7,0.3c-0.6,0-1.2-0.1-1.7-0.3s-1-0.5-1.4-0.8c-0.4-0.4-0.7-0.8-0.9-1.3
		c-0.2-0.5-0.3-1.1-0.3-1.7c0-0.7,0.1-1.3,0.4-1.8c0.3-0.5,0.6-0.9,1-1.2v0H5.6v-1.6h13.2v1.6L17.5,238.4L17.5,238.4z M14.6,243.8
		c0.4,0,0.8-0.1,1.1-0.2c0.4-0.1,0.7-0.3,1-0.5s0.5-0.5,0.7-0.9c0.2-0.3,0.3-0.7,0.3-1.2c0-0.4-0.1-0.8-0.2-1.1
		c-0.2-0.3-0.4-0.6-0.7-0.9c-0.3-0.2-0.6-0.4-1-0.6c-0.4-0.1-0.7-0.2-1.1-0.2c-0.4,0-0.8,0.1-1.1,0.2c-0.4,0.1-0.7,0.3-1,0.6
		s-0.5,0.5-0.7,0.9c-0.2,0.3-0.2,0.7-0.2,1.1c0,0.5,0.1,0.9,0.2,1.2c0.2,0.3,0.4,0.6,0.7,0.9s0.6,0.4,1,0.5
		C13.9,243.8,14.3,243.8,14.6,243.8z"/>
	<path class="st1" d="M7.5,232c0.3,0,0.6,0.1,0.8,0.3c0.2,0.2,0.3,0.5,0.3,0.8c0,0.3-0.1,0.6-0.3,0.8c-0.2,0.2-0.5,0.3-0.7,0.3
		c-0.3,0-0.6-0.1-0.8-0.3c-0.2-0.2-0.3-0.5-0.3-0.8c0-0.3,0.1-0.6,0.3-0.8C7,232.1,7.2,232,7.5,232z M18.8,232.2v1.6h-8.3v-1.6H18.8
		z"/>
	<path class="st1" d="M14.6,221.6c0.1,0,0.2,0,0.3,0c0.1,0,0.2,0,0.3,0v6.6c0.3,0,0.7-0.1,1-0.2c0.3-0.1,0.6-0.3,0.8-0.6
		c0.2-0.2,0.4-0.5,0.5-0.8c0.1-0.3,0.2-0.7,0.2-1c0-0.6-0.1-1-0.4-1.5c-0.2-0.4-0.5-0.7-0.9-1l0.9-1.2c0.6,0.4,1,1,1.3,1.6
		c0.3,0.6,0.4,1.3,0.4,2c0,0.6-0.1,1.2-0.3,1.8s-0.5,1-0.9,1.4c-0.4,0.4-0.8,0.7-1.4,0.9s-1.1,0.3-1.8,0.3c-0.6,0-1.2-0.1-1.8-0.3
		c-0.5-0.2-1-0.5-1.4-0.9c-0.4-0.4-0.7-0.8-0.9-1.4c-0.2-0.5-0.3-1.1-0.3-1.7s0.1-1.2,0.3-1.7c0.2-0.5,0.5-0.9,0.9-1.3
		c0.4-0.3,0.8-0.6,1.4-0.8C13.3,221.7,13.9,221.6,14.6,221.6z M13.9,223.3c-0.3,0-0.6,0.1-0.9,0.2c-0.3,0.1-0.5,0.2-0.7,0.4
		c-0.2,0.2-0.4,0.4-0.5,0.7s-0.2,0.6-0.2,1c0,0.3,0.1,0.7,0.2,1c0.1,0.3,0.3,0.6,0.5,0.8c0.2,0.2,0.5,0.4,0.7,0.6
		c0.3,0.1,0.6,0.2,0.9,0.3V223.3z"/>
	<path class="st1" d="M16.3,216L16.3,216L6.4,213v-1.9l9.9-2.9v0l-9.9-2.7v-1.8l12.4,3.6v1.8l-10,3v0l10,3v1.8l-12.4,3.6v-1.9
		L16.3,216z"/>
	<path class="st1" d="M14.6,194.9c0.1,0,0.2,0,0.3,0c0.1,0,0.2,0,0.3,0v6.6c0.3,0,0.7-0.1,1-0.2c0.3-0.1,0.6-0.3,0.8-0.6
		c0.2-0.2,0.4-0.5,0.5-0.8c0.1-0.3,0.2-0.7,0.2-1c0-0.6-0.1-1-0.4-1.5c-0.2-0.4-0.5-0.7-0.9-1l0.9-1.2c0.6,0.4,1,1,1.3,1.6
		c0.3,0.6,0.4,1.3,0.4,2c0,0.6-0.1,1.2-0.3,1.8s-0.5,1-0.9,1.4c-0.4,0.4-0.8,0.7-1.4,0.9s-1.1,0.3-1.8,0.3c-0.6,0-1.2-0.1-1.8-0.3
		c-0.5-0.2-1-0.5-1.4-0.9c-0.4-0.4-0.7-0.8-0.9-1.4c-0.2-0.5-0.3-1.1-0.3-1.7s0.1-1.2,0.3-1.7c0.2-0.5,0.5-0.9,0.9-1.3
		c0.4-0.3,0.8-0.6,1.4-0.8C13.3,195,13.9,194.9,14.6,194.9z M13.9,196.6c-0.3,0-0.6,0.1-0.9,0.2c-0.3,0.1-0.5,0.2-0.7,0.4
		c-0.2,0.2-0.4,0.4-0.5,0.7s-0.2,0.6-0.2,1c0,0.3,0.1,0.7,0.2,1c0.1,0.3,0.3,0.6,0.5,0.8c0.2,0.2,0.5,0.4,0.7,0.6
		c0.3,0.1,0.6,0.2,0.9,0.3V196.6z"/>
	<path class="st1" d="M17.5,191h1.3v1.6H5.6v-1.6h6.2v-0.1c-0.4-0.3-0.8-0.7-1-1.2c-0.3-0.5-0.4-1.1-0.4-1.8c0-0.6,0.1-1.2,0.3-1.7
		c0.2-0.5,0.5-0.9,0.9-1.3c0.4-0.4,0.9-0.6,1.4-0.8s1.1-0.3,1.7-0.3c0.6,0,1.2,0.1,1.7,0.3c0.5,0.2,1,0.5,1.4,0.8
		c0.4,0.4,0.7,0.8,0.9,1.3c0.2,0.5,0.3,1.1,0.3,1.7c0,0.6-0.1,1.2-0.4,1.7C18.4,190.2,18,190.6,17.5,191L17.5,191z M14.6,185.5
		c-0.4,0-0.8,0.1-1.1,0.2c-0.4,0.1-0.7,0.3-1,0.5c-0.3,0.2-0.5,0.5-0.7,0.9s-0.2,0.7-0.2,1.2c0,0.4,0.1,0.8,0.2,1.1
		c0.2,0.3,0.4,0.6,0.7,0.9s0.6,0.4,1,0.6c0.4,0.1,0.7,0.2,1.1,0.2c0.4,0,0.8-0.1,1.1-0.2c0.4-0.1,0.7-0.3,1-0.6
		c0.3-0.2,0.5-0.5,0.7-0.9c0.2-0.3,0.2-0.7,0.2-1.1c0-0.5-0.1-0.9-0.3-1.2s-0.4-0.6-0.7-0.9c-0.3-0.2-0.6-0.4-1-0.5
		C15.4,185.5,15,185.5,14.6,185.5z"/>
	<path class="st1" d="M17.3,175.3v-5.5h1.5v7.3H6.4v-1.7H17.3z"/>
	<path class="st1" d="M7.5,166.2c0.3,0,0.6,0.1,0.8,0.3c0.2,0.2,0.3,0.5,0.3,0.8s-0.1,0.6-0.3,0.8c-0.2,0.2-0.5,0.3-0.7,0.3
		c-0.3,0-0.6-0.1-0.8-0.3c-0.2-0.2-0.3-0.5-0.3-0.8s0.1-0.6,0.3-0.8C7,166.3,7.2,166.2,7.5,166.2z M18.8,166.5v1.6h-8.3v-1.6H18.8z"
		/>
	<path class="st1" d="M18.8,159.7v1.8l-8.3,3.4v-1.8l6.5-2.4v0l-6.5-2.5v-1.8L18.8,159.7z"/>
	<path class="st1" d="M7.5,152.9c0.3,0,0.6,0.1,0.8,0.3c0.2,0.2,0.3,0.5,0.3,0.8s-0.1,0.6-0.3,0.8c-0.2,0.2-0.5,0.3-0.7,0.3
		c-0.3,0-0.6-0.1-0.8-0.3c-0.2-0.2-0.3-0.5-0.3-0.8s0.1-0.6,0.3-0.8C7,153,7.2,152.9,7.5,152.9z M18.8,153.1v1.6h-8.3v-1.6H18.8z"/>
	<path class="st1" d="M10.5,148.8c0.2,0,0.4,0,0.7-0.1s0.5,0,0.7,0v-0.1c-0.2-0.1-0.4-0.2-0.6-0.4c-0.2-0.2-0.4-0.4-0.5-0.6
		c-0.1-0.2-0.3-0.5-0.3-0.8c-0.1-0.3-0.1-0.6-0.1-0.9c0-0.5,0.1-1,0.3-1.4c0.2-0.4,0.4-0.7,0.7-1c0.3-0.3,0.7-0.4,1.1-0.6
		s0.8-0.2,1.3-0.2h5.1v1.6h-4.6c-0.3,0-0.7,0-1,0.1c-0.3,0.1-0.6,0.1-0.8,0.3c-0.2,0.1-0.4,0.3-0.6,0.6c-0.1,0.2-0.2,0.6-0.2,0.9
		c0,0.7,0.2,1.2,0.7,1.6c0.5,0.4,1.2,0.6,2,0.6h4.4v1.6h-6.5c-0.2,0-0.5,0-0.9,0s-0.7,0-0.9,0.1V148.8z"/>
	<path class="st1" d="M20.2,139.4c0.4-0.4,0.7-0.8,1-1.4s0.4-1.1,0.4-1.7c0-0.5-0.1-1-0.2-1.4c-0.2-0.4-0.4-0.7-0.6-0.9
		s-0.6-0.4-1-0.5s-0.8-0.1-1.2-0.1h-1.1v0c0.5,0.3,0.8,0.7,1.1,1.2s0.4,1.1,0.4,1.7c0,0.6-0.1,1.2-0.3,1.7c-0.2,0.5-0.5,1-0.9,1.3
		s-0.8,0.6-1.4,0.8c-0.5,0.2-1.1,0.3-1.7,0.3c-0.6,0-1.2-0.1-1.7-0.3c-0.5-0.2-1-0.5-1.4-0.8c-0.4-0.4-0.7-0.8-0.9-1.3
		c-0.2-0.5-0.3-1.1-0.3-1.7c0-0.6,0.1-1.2,0.4-1.7s0.6-1,1.2-1.3v0h-1.3v-1.6h7.9c0.6,0,1.2,0.1,1.7,0.2c0.6,0.2,1,0.4,1.5,0.8
		c0.4,0.4,0.8,0.8,1,1.4c0.3,0.6,0.4,1.3,0.4,2.2c0,0.7-0.1,1.5-0.4,2.2s-0.6,1.4-1.1,1.9L20.2,139.4z M14.6,138.9
		c0.4,0,0.8-0.1,1.1-0.2c0.4-0.1,0.7-0.3,0.9-0.5c0.3-0.2,0.5-0.5,0.6-0.9c0.2-0.3,0.2-0.7,0.2-1.2c0-0.4-0.1-0.8-0.2-1.2
		c-0.2-0.4-0.4-0.6-0.6-0.9c-0.3-0.2-0.6-0.4-0.9-0.6c-0.4-0.1-0.7-0.2-1.1-0.2c-0.4,0-0.8,0.1-1.1,0.2c-0.3,0.1-0.7,0.3-0.9,0.6
		c-0.3,0.3-0.5,0.6-0.6,0.9c-0.2,0.3-0.2,0.7-0.2,1.2c0,0.4,0.1,0.8,0.2,1.2c0.2,0.3,0.4,0.6,0.6,0.9c0.3,0.2,0.6,0.4,0.9,0.5
		C13.8,138.9,14.2,138.9,14.6,138.9z"/>
	<path class="st1" d="M8.7,118.4c-0.3,0.2-0.6,0.6-0.8,1c-0.2,0.4-0.3,0.9-0.3,1.4c0,0.3,0,0.6,0.1,0.8c0.1,0.3,0.2,0.5,0.4,0.8
		c0.2,0.2,0.4,0.4,0.6,0.6s0.6,0.2,0.9,0.2c0.3,0,0.6-0.1,0.8-0.2s0.4-0.3,0.6-0.5s0.3-0.5,0.4-0.8c0.1-0.3,0.2-0.6,0.3-1
		c0.1-0.4,0.3-0.8,0.4-1.3c0.2-0.4,0.4-0.8,0.6-1.2c0.3-0.4,0.6-0.6,1-0.9c0.4-0.2,0.9-0.3,1.5-0.3c0.6,0,1.2,0.1,1.7,0.4
		c0.5,0.2,0.9,0.6,1.2,1c0.3,0.4,0.5,0.9,0.7,1.4c0.2,0.5,0.2,1.1,0.2,1.6c0,0.8-0.2,1.5-0.5,2.3c-0.3,0.7-0.8,1.3-1.3,1.8l-1.1-1.3
		c0.4-0.3,0.8-0.7,1.1-1.2s0.4-1,0.4-1.6c0-0.3,0-0.6-0.1-0.9c-0.1-0.3-0.2-0.6-0.4-0.8c-0.2-0.2-0.4-0.4-0.7-0.6
		c-0.3-0.2-0.6-0.2-1-0.2c-0.4,0-0.7,0.1-0.9,0.2c-0.3,0.2-0.5,0.4-0.6,0.6c-0.2,0.3-0.3,0.6-0.4,0.9c-0.1,0.4-0.2,0.7-0.4,1.1
		c-0.1,0.4-0.3,0.8-0.4,1.2c-0.2,0.4-0.4,0.7-0.6,1c-0.3,0.3-0.6,0.5-1,0.7c-0.4,0.2-0.9,0.3-1.4,0.3c-0.6,0-1.1-0.1-1.6-0.4
		c-0.4-0.3-0.8-0.6-1.1-1c-0.3-0.4-0.5-0.9-0.6-1.4s-0.2-1-0.2-1.5c0-0.7,0.1-1.4,0.4-2c0.3-0.6,0.6-1.1,1-1.5L8.7,118.4z"/>
	<path class="st1" d="M11.9,110.7v2.2h4.3c0.5,0,0.9-0.1,1.1-0.3c0.2-0.2,0.3-0.5,0.3-0.9c0-0.2,0-0.3,0-0.5c0-0.2-0.1-0.3-0.1-0.5
		l1.3-0.1c0.1,0.2,0.1,0.4,0.2,0.7c0,0.2,0.1,0.5,0.1,0.7c0,0.8-0.2,1.4-0.6,1.8c-0.4,0.4-1.1,0.6-1.9,0.6h-4.5v1.6h-1.3v-1.6H8.1
		v-1.6h2.4v-2.2H11.9z"/>
	<path class="st1" d="M13.4,103.9c-0.6,0-1.1,0.2-1.4,0.6c-0.3,0.4-0.4,0.9-0.4,1.5c0,0.5,0.1,0.9,0.3,1.3c0.2,0.4,0.4,0.8,0.7,1
		l-1.1,0.9c-0.4-0.4-0.7-0.9-0.9-1.5c-0.2-0.6-0.3-1.2-0.3-1.9c0-0.6,0.1-1.1,0.3-1.5c0.2-0.4,0.4-0.8,0.7-1.1
		c0.3-0.3,0.6-0.5,1-0.6c0.4-0.1,0.8-0.2,1.3-0.2h3.6c0.3,0,0.6,0,0.9,0c0.3,0,0.6,0,0.8-0.1v1.5c-0.4,0.1-0.8,0.1-1.2,0.1v0.1
		c0.4,0.3,0.8,0.7,1,1.1c0.2,0.5,0.4,1,0.4,1.6c0,0.3,0,0.7-0.1,1c-0.1,0.4-0.2,0.7-0.4,1c-0.2,0.3-0.5,0.5-0.8,0.7
		c-0.3,0.2-0.7,0.3-1.2,0.3c-0.6,0-1.1-0.2-1.5-0.5c-0.4-0.3-0.6-0.8-0.8-1.3c-0.2-0.5-0.3-1.2-0.4-1.9c-0.1-0.7-0.1-1.4-0.1-2.1
		H13.4z M14.8,104.3c0,0.4,0,0.8,0.1,1.3c0,0.4,0.1,0.8,0.2,1.2c0.1,0.4,0.3,0.7,0.5,0.9s0.5,0.4,0.8,0.4c0.2,0,0.4,0,0.6-0.1
		c0.2-0.1,0.3-0.2,0.4-0.4c0.1-0.2,0.2-0.3,0.2-0.5c0-0.2,0.1-0.4,0.1-0.6c0-0.8-0.2-1.4-0.7-1.8c-0.5-0.4-1-0.6-1.7-0.6h-0.4V104.3
		z"/>
	<path class="st1" d="M10.5,98.1c0.2,0,0.4,0,0.7-0.1s0.5,0,0.7,0v-0.1c-0.2-0.1-0.4-0.2-0.6-0.4c-0.2-0.2-0.4-0.4-0.5-0.6
		c-0.1-0.2-0.3-0.5-0.3-0.8c-0.1-0.3-0.1-0.6-0.1-0.9c0-0.5,0.1-1,0.3-1.4c0.2-0.4,0.4-0.7,0.7-1c0.3-0.3,0.7-0.4,1.1-0.6
		s0.8-0.2,1.3-0.2h5.1v1.6h-4.6c-0.3,0-0.7,0-1,0.1c-0.3,0.1-0.6,0.1-0.8,0.3c-0.2,0.1-0.4,0.3-0.6,0.6c-0.1,0.2-0.2,0.6-0.2,0.9
		c0,0.7,0.2,1.2,0.7,1.6c0.5,0.4,1.2,0.6,2,0.6h4.4v1.6h-6.5c-0.2,0-0.5,0-0.9,0s-0.7,0-0.9,0.1V98.1z"/>
	<path class="st1" d="M17.5,82.7c0.5,0.3,0.9,0.7,1.1,1.3s0.4,1.1,0.4,1.7c0,0.6-0.1,1.2-0.3,1.7c-0.2,0.5-0.5,1-0.9,1.3
		c-0.4,0.4-0.9,0.6-1.4,0.8c-0.5,0.2-1.1,0.3-1.7,0.3c-0.6,0-1.2-0.1-1.7-0.3s-1-0.5-1.4-0.8c-0.4-0.4-0.7-0.8-0.9-1.3
		c-0.2-0.5-0.3-1.1-0.3-1.7c0-0.7,0.1-1.3,0.4-1.8c0.3-0.5,0.6-0.9,1-1.2v0H5.6v-1.6h13.2v1.6L17.5,82.7L17.5,82.7z M14.6,88.2
		c0.4,0,0.8-0.1,1.1-0.2c0.4-0.1,0.7-0.3,1-0.5s0.5-0.5,0.7-0.9s0.3-0.7,0.3-1.2c0-0.4-0.1-0.8-0.2-1.1s-0.4-0.6-0.7-0.9
		c-0.3-0.2-0.6-0.4-1-0.6c-0.4-0.1-0.7-0.2-1.1-0.2c-0.4,0-0.8,0.1-1.1,0.2c-0.4,0.1-0.7,0.3-1,0.6s-0.5,0.5-0.7,0.9
		s-0.2,0.7-0.2,1.1c0,0.5,0.1,0.9,0.2,1.2s0.4,0.6,0.7,0.9s0.6,0.4,1,0.5C13.9,88.1,14.3,88.2,14.6,88.2z"/>
	<path class="st1" d="M13.4,73.1c-0.6,0-1.1,0.2-1.4,0.6c-0.3,0.4-0.4,0.9-0.4,1.5c0,0.5,0.1,0.9,0.3,1.3c0.2,0.4,0.4,0.8,0.7,1
		l-1.1,0.9c-0.4-0.4-0.7-0.9-0.9-1.5c-0.2-0.6-0.3-1.2-0.3-1.9c0-0.6,0.1-1.1,0.3-1.5c0.2-0.4,0.4-0.8,0.7-1.1
		c0.3-0.3,0.6-0.5,1-0.6c0.4-0.1,0.8-0.2,1.3-0.2h3.6c0.3,0,0.6,0,0.9,0c0.3,0,0.6,0,0.8-0.1v1.5C18.4,73,18,73,17.6,73v0.1
		c0.4,0.3,0.8,0.7,1,1.1c0.2,0.5,0.4,1,0.4,1.6c0,0.3,0,0.7-0.1,1c-0.1,0.4-0.2,0.7-0.4,1c-0.2,0.3-0.5,0.5-0.8,0.7
		c-0.3,0.2-0.7,0.3-1.2,0.3c-0.6,0-1.1-0.2-1.5-0.5c-0.4-0.3-0.6-0.8-0.8-1.3c-0.2-0.5-0.3-1.2-0.4-1.9c-0.1-0.7-0.1-1.4-0.1-2.1
		H13.4z M14.8,73.5c0,0.4,0,0.8,0.1,1.3c0,0.4,0.1,0.8,0.2,1.2c0.1,0.4,0.3,0.7,0.5,0.9s0.5,0.4,0.8,0.4c0.2,0,0.4,0,0.6-0.1
		c0.2-0.1,0.3-0.2,0.4-0.4c0.1-0.2,0.2-0.3,0.2-0.5c0-0.2,0.1-0.4,0.1-0.6c0-0.8-0.2-1.4-0.7-1.8c-0.5-0.4-1-0.6-1.7-0.6h-0.4V73.5z
		"/>
	<path class="st1" d="M11.4,68.8c-0.4,0-0.7,0-0.9,0.1v-1.6c0.2,0,0.5,0,0.7-0.1c0.3,0,0.5,0,0.7,0v-0.1c-0.5-0.2-0.9-0.6-1.2-1
		c-0.3-0.4-0.4-1-0.4-1.5c0-0.3,0-0.5,0.1-0.6l1.5,0.1c-0.1,0.2-0.1,0.5-0.1,0.8c0,0.4,0.1,0.7,0.2,1c0.1,0.3,0.3,0.5,0.6,0.7
		c0.2,0.2,0.5,0.3,0.8,0.4c0.3,0.1,0.7,0.1,1,0.1h4.4v1.6h-6.5C12.1,68.8,11.8,68.8,11.4,68.8z"/>
	<path class="st1" d="M17.5,56.1c0.5,0.3,0.9,0.7,1.1,1.3s0.4,1.1,0.4,1.7c0,0.6-0.1,1.2-0.3,1.7c-0.2,0.5-0.5,1-0.9,1.3
		c-0.4,0.4-0.9,0.6-1.4,0.8c-0.5,0.2-1.1,0.3-1.7,0.3c-0.6,0-1.2-0.1-1.7-0.3s-1-0.5-1.4-0.8c-0.4-0.4-0.7-0.8-0.9-1.3
		c-0.2-0.5-0.3-1.1-0.3-1.7c0-0.7,0.1-1.3,0.4-1.8c0.3-0.5,0.6-0.9,1-1.2v0H5.6v-1.6h13.2v1.6L17.5,56.1L17.5,56.1z M14.6,61.6
		c0.4,0,0.8-0.1,1.1-0.2c0.4-0.1,0.7-0.3,1-0.5s0.5-0.5,0.7-0.9s0.3-0.7,0.3-1.2c0-0.4-0.1-0.8-0.2-1.1S17,57,16.8,56.8
		c-0.3-0.2-0.6-0.4-1-0.6c-0.4-0.1-0.7-0.2-1.1-0.2c-0.4,0-0.8,0.1-1.1,0.2c-0.4,0.1-0.7,0.3-1,0.6s-0.5,0.5-0.7,0.9
		s-0.2,0.7-0.2,1.1c0,0.5,0.1,0.9,0.2,1.2s0.4,0.6,0.7,0.9s0.6,0.4,1,0.5C13.9,61.5,14.3,61.6,14.6,61.6z"/>
</g>
</svg>
