<?xml version="1.0" encoding="utf-8"?>
<!-- Generator: Adobe Illustrator 23.0.1, SVG Export Plug-In . SVG Version: 6.00 Build 0)  -->
<svg version="1.1" id="Layer_1" xmlns="http://www.w3.org/2000/svg" xmlns:xlink="http://www.w3.org/1999/xlink" x="0px" y="0px"
	 viewBox="0 0 25 380" style="enable-background:new 0 0 25 380;" xml:space="preserve">
<style type="text/css">
	.st0{fill-rule:evenodd;clip-rule:evenodd;fill:#005A9C;}
	.st1{fill-rule:evenodd;clip-rule:evenodd;fill:#FFFFFF;}
	.st2{display:none;fill-rule:evenodd;clip-rule:evenodd;fill:#FFFFFF;}
	.st3{fill:#FFFFFF;}
</style>
<g image-rendering="optimizeQuality" text-rendering="geometricPrecision" shape-rendering="geometricPrecision">
	<g id="Background">
	</g>
	<g id="Guides">
	</g>
	<g id="Foreground">
		<rect class="st0" width="25" height="380"/>
		<polygon class="st1" points="5.1,215.6 5.1,217.5 14.5,221.2 5.1,225 5.1,226.9 14.5,230.7 5.1,234.4 5.1,236.4 18.9,230.9 
			18.9,230.5 7.7,226 18.9,221.5 18.9,221.1 		"/>
		<path class="st1" d="M7.4,214.1c-0.4-0.9-0.6-1.6-0.6-2.3c0-1.4,0.8-2.4,2-2.4c1.2,0,2,0.9,2,2.7h1.8c-0.1-1.9,0.9-2.9,2.3-2.9
			c1.3,0,2.2,0.9,2.2,2.2c0,1-0.3,2-1,3h2.1c0.5-1,0.8-2,0.8-2.9c0-2.5-1.7-4.3-4.1-4.3c-1.4,0-2.8,0.6-3.2,2
			c-0.7-1.2-1.5-1.7-3.1-1.7c-2.2,0-3.6,1.6-3.6,4c0,1,0.2,1.8,0.6,2.6L7.4,214.1L7.4,214.1z"/>
		<path class="st1" d="M6.1,192.8c-0.8,1.9-1.1,3.3-1.1,4.7c0,4.3,3,7.5,7.2,7.5c2.9,0,6.8-2.2,6.8-7.4c0-2.1-0.5-3.6-1.2-4.9h-2.1
			c1,1.5,1.5,3.2,1.5,4.8c0,3.3-2.1,5.5-5.2,5.5c-3,0-5.2-2.3-5.2-5.4c0-1.6,0.4-3,1.4-4.7C8.2,192.8,6.1,192.8,6.1,192.8z"/>
		<polygon class="st2" points="5.1,64.5 5.1,66.4 15.7,66.4 5.1,75.6 5.1,77.2 18.8,77.2 18.8,75.3 8.3,75.3 18.8,66.2 18.8,64.5 		
			"/>
		<path class="st2" d="M9.6,57.8c0,2.7,2,4.7,4.6,4.7c2.8,0,4.8-2,4.8-4.7c0-2.9-1.9-4.9-4.8-4.9C11.5,52.9,9.6,54.9,9.6,57.8z
			 M11.2,57.8c0-1.8,1.3-3.1,3-3.1c1.9,0,3.1,1.2,3.1,3.1c0,1.7-1.3,2.9-3.2,2.9C12.5,60.7,11.2,59.5,11.2,57.8z"/>
		<path class="st2" d="M7.9,49.1l3.3,3.3h0.2v-1.6h4.7c1.6,0,2.8-1,2.8-2.9c0-0.6-0.3-1.5-0.6-2.2h-1.7c0.4,0.7,0.7,1.4,0.7,2
			c0,0.5-0.3,1.3-1.4,1.3h-4.6v-2.8H9.8v2.8H7.9z"/>
		<path class="st2" d="M16.2,37.2c0.7,1,1.1,2.1,1.1,3.1c0,1.7-0.9,2.7-2.7,3V37c-3.3,0-4.9,1.5-4.9,3.9c0,2.5,1.8,4.2,4.6,4.2
			c2.5,0,4.8-1.6,4.8-4.4c0-1.5-0.3-2.5-1.1-3.6C17.9,37.2,16.2,37.2,16.2,37.2z M13.4,43.3c-1.4-0.2-2.2-1.1-2.2-2.4
			c0-1.3,0.9-2,2.2-2.1V43.3z"/>
		<g>
			<path class="st3" d="M5.6,178.8h11v-3.8h1.8v5.7H5.6V178.8z"/>
			<path class="st3" d="M5.6,171.3h12.8v1.9H5.6V171.3z"/>
			<path class="st3" d="M5.6,167.6l8.8-3.5l-8.8-3.6v-2.1l13.7,5.7l-13.7,5.6V167.6z"/>
			<path class="st3" d="M5.6,154.9h12.8v1.9H5.6V154.9z"/>
			<path class="st3" d="M18.3,151.8H4.7l9.7-9.3H5.6v-1.9h13.5l-9.7,9.3h8.9V151.8z"/>
			<path class="st3" d="M11.7,130.8v-5.3h0.4c1,0,1.8,0.1,2.5,0.3c0.7,0.2,1.3,0.6,1.9,1.1c1.3,1.2,2,2.7,2,4.5
				c0,1.8-0.6,3.3-1.9,4.6c-1.3,1.3-2.9,1.9-4.7,1.9c-1.9,0-3.4-0.6-4.7-1.9c-1.3-1.3-1.9-2.9-1.9-4.7c0-1,0.2-1.9,0.6-2.8
				c0.4-0.8,1.1-1.6,2-2.4l1.3,1.4c-1.4,1-2.1,2.3-2.1,3.8c0,1.4,0.5,2.5,1.4,3.4c0.9,0.9,2.1,1.4,3.4,1.4c1.4,0,2.6-0.5,3.5-1.5
				c0.9-1,1.3-2,1.3-3.1c0-0.9-0.3-1.8-1-2.6c-0.6-0.8-1.4-1.2-2.3-1.3v3.2H11.7z"/>
			<path class="st3" d="M7.5,110.7l0.9,1.6c-0.5,0.3-0.8,0.6-1,0.8c-0.2,0.3-0.3,0.6-0.3,1.1c0,0.5,0.2,1,0.5,1.3
				c0.3,0.4,0.7,0.5,1.1,0.5c0.6,0,1.1-0.5,1.5-1.4l0.5-1.3c0.4-1,0.9-1.8,1.5-2.3c0.6-0.5,1.3-0.7,2.2-0.7c1.2,0,2.1,0.4,2.9,1.2
				c0.8,0.8,1.2,1.8,1.2,2.9c0,1.1-0.3,2-1,2.7c-0.7,0.7-1.6,1.2-2.8,1.3l-0.4-2c0.8-0.1,1.3-0.2,1.6-0.5c0.6-0.4,0.8-1,0.8-1.7
				c0-0.6-0.2-1.1-0.6-1.5s-0.9-0.6-1.5-0.6c-0.2,0-0.5,0-0.7,0.1c-0.2,0.1-0.4,0.2-0.6,0.3s-0.3,0.3-0.5,0.6
				c-0.2,0.2-0.3,0.5-0.4,0.8l-0.5,1.2c-0.7,1.7-1.8,2.6-3.2,2.6c-1,0-1.8-0.4-2.4-1.1c-0.7-0.7-1-1.6-1-2.7
				C5.3,112.6,6,111.5,7.5,110.7z"/>
			<path class="st3" d="M7.4,104.2h11v1.9h-11v2.9H5.6v-7.8h1.8V104.2z"/>
			<path class="st3" d="M15.2,92.8v5.5l3.1,1.4v2.1L4.8,95.4l13.6-6.1v2.1L15.2,92.8z M13.4,93.6l-4.3,1.9l4.3,2V93.6z"/>
			<path class="st3" d="M18.3,87.7H4.7l9.7-9.3H5.6v-1.9h13.5l-9.7,9.3h8.9V87.7z"/>
			<path class="st3" d="M18.3,73.4H5.6v-2.7c0-1.3,0.1-2.3,0.4-3c0.2-0.8,0.7-1.5,1.3-2.2c1.2-1.3,2.8-2,4.7-2c2,0,3.6,0.7,4.8,2.1
				c0.6,0.7,1,1.4,1.3,2.2c0.2,0.7,0.4,1.7,0.4,3V73.4z M16.5,71.5v-0.9c0-0.9-0.1-1.6-0.3-2.2c-0.2-0.6-0.5-1.1-0.9-1.6
				c-0.9-0.9-2-1.4-3.4-1.4c-1.4,0-2.5,0.5-3.4,1.4c-0.8,0.8-1.2,2.1-1.2,3.7v0.9H16.5z"/>
			<path class="st3" d="M15.2,54.3v5.5l3.1,1.4v2.1L4.8,56.9l13.6-6.1v2.1L15.2,54.3z M13.4,55.1L9.1,57l4.3,2V55.1z"/>
			<path class="st3" d="M12.9,44.9l5.4-4v2.4L13.1,47v0.3h5.2v1.9H5.6V47c0-1.7,0.3-2.9,1-3.7c0.7-0.8,1.6-1.2,2.8-1.2
				c0.9,0,1.7,0.3,2.3,0.8C12.3,43.4,12.7,44.1,12.9,44.9z M11.4,47.3v-0.6c0-1.8-0.7-2.7-2.1-2.7c-1.3,0-2,0.9-2,2.7v0.7H11.4z"/>
			<path class="st3" d="M18.3,39H5.6v-2.7c0-1.3,0.1-2.3,0.4-3c0.2-0.8,0.7-1.5,1.3-2.2c1.2-1.3,2.8-2,4.7-2c2,0,3.6,0.7,4.8,2.1
				c0.6,0.7,1,1.4,1.3,2.2c0.2,0.7,0.4,1.7,0.4,3V39z M16.5,37.1v-0.9c0-0.9-0.1-1.6-0.3-2.2c-0.2-0.6-0.5-1.1-0.9-1.6
				c-0.9-0.9-2-1.4-3.4-1.4c-1.4,0-2.5,0.5-3.4,1.4c-0.8,0.8-1.2,2.1-1.2,3.7v0.9H16.5z"/>
		</g>
	</g>
	<g id="Calque_1">
	</g>
</g>
</svg>
